<svg width="1920" height="970" viewBox="0 0 1920 970" fill="none" xmlns="http://www.w3.org/2000/svg">
    <g clip-path="url(#clip0_1032_379)">
        <path d="M1853.5 448.753L2046.79 385.789C2066.23 379.459 2087.04 390.009 2093.35 409.388L2156.14 602.144C2162.45 621.522 2151.85 642.308 2132.41 648.638L1939.12 711.602C1919.68 717.932 1898.87 707.382 1892.55 688.003L1829.77 495.248C1823.46 475.869 1834.06 455.083 1853.5 448.753Z"
              fill="#CE237F" stroke="#CE237F" stroke-width="0.4252" stroke-miterlimit="1.7008">
            <animateTransform xmlns="http://www.w3.org/2000/svg" attributeType="XML" attributeName="transform" begin="0s" dur="50s" type="rotate" from="0 1930 550" to="360 1934 550" repeatCount="indefinite"/>
        </path>
        <path d="M418.127 702.238L441.883 708.115C442.708 707.98 442.892 707.234 442.45 705.825L436.673 683.482C436.312 682.884 435.886 682.778 435.288 683.139L418.641 699.934C417.579 701.028 417.394 701.774 418.127 702.238Z"
              fill="#CE237F" stroke="#CE237F" stroke-width="0.4252" stroke-miterlimit="1.7008">
            <animateTransform xmlns="http://www.w3.org/2000/svg" attributeType="XML" attributeName="transform" begin="0s" dur="50s" type="rotate" from="0 433 679" to="360 433 679" repeatCount="indefinite"/>
        </path>
        <circle cx="0" cy="400" r="130" stroke="rgb(241, 243, 244)" fill="rgb(253, 214, 99)">
            <animateMotion path="M 0 0 L -20 40 Z" dur="9s" repeatCount="indefinite" />
        </circle>
        <g clip-path="url(#clip1_1032_379)">
            <path d="M1424.6 640.358C1425.51 639.848 1426.44 639.357 1427.46 639.182C1429.5 638.821 1431.68 639.041 1433.52 640.072C1435.15 640.935 1436.32 642.445 1437.6 643.754C1439.04 645.434 1440.04 647.628 1439.98 649.921C1440.13 652.52 1439.14 655.143 1437.39 656.98L1430.99 663.702C1429.86 664.857 1428.82 666.159 1427.42 666.979C1426.05 667.885 1424.4 668.219 1422.8 668.31C1422.09 668.198 1421.37 668.219 1420.68 667.995C1419.28 667.651 1417.98 666.913 1416.88 665.946C1416.18 665.237 1415.47 664.543 1414.83 663.784C1415.72 662.776 1416.69 661.835 1417.6 660.84C1417.76 660.687 1417.89 660.47 1418.12 660.435C1418.44 660.7 1418.65 661.092 1418.96 661.373C1420.22 662.583 1421.99 663.238 1423.69 662.964C1424.51 662.787 1425.32 662.488 1426.02 661.992C1426.47 661.68 1426.83 661.249 1427.21 660.854C1429.22 658.755 1431.21 656.653 1433.22 654.557C1434.29 653.521 1434.96 652.02 1434.99 650.481C1435.06 648.772 1434.39 647.033 1433.18 645.882C1432.07 644.732 1430.47 644.181 1428.93 644.274C1427.63 644.412 1426.33 644.937 1425.39 645.913C1424.18 647.112 1423.07 648.426 1421.84 649.601C1420.86 650.474 1419.25 650.157 1418.56 649.048C1417.98 648.177 1418.04 646.862 1418.79 646.118C1420.19 644.649 1421.59 643.182 1422.98 641.712C1423.47 641.199 1423.99 640.707 1424.6 640.358V640.358Z"
                  fill="#CE237F"/>
            <path d="M1416.1 651.74C1418.66 651.37 1421.3 652.321 1423.25 654.062C1423.93 654.785 1424.65 655.461 1425.28 656.221C1424.35 657.282 1423.33 658.25 1422.39 659.3C1422.26 659.406 1422.15 659.63 1421.96 659.606C1421.62 659.223 1421.34 658.778 1420.96 658.43C1419.91 657.441 1418.48 656.895 1417.06 656.974C1415.53 656.928 1414.12 657.779 1413.04 658.85C1411.06 660.927 1409.09 663.008 1407.1 665.08C1405.97 666.238 1405.04 667.805 1405.09 669.518C1404.86 672.702 1407.61 675.802 1410.67 675.662C1412.11 675.691 1413.59 675.169 1414.61 674.081C1415.56 673.072 1416.52 672.075 1417.47 671.064C1417.85 670.651 1418.29 670.283 1418.8 670.059C1419.67 669.651 1420.8 669.933 1421.39 670.722C1421.81 671.334 1422.05 672.163 1421.8 672.905C1421.66 673.527 1421.21 673.983 1420.79 674.41C1419.41 675.813 1418.1 677.286 1416.7 678.659C1415.44 679.894 1413.77 680.443 1412.17 681H1409.3C1408.4 680.573 1407.4 680.392 1406.54 679.877C1404.97 679.026 1403.78 677.645 1402.57 676.338C1401.7 675.356 1401.01 674.193 1400.59 672.925C1400.36 672.279 1400.21 671.607 1400 670.956V668.377C1400.4 667.189 1400.67 665.937 1401.3 664.844C1401.79 663.914 1402.54 663.182 1403.26 662.44C1405.9 659.662 1408.55 656.889 1411.19 654.111C1412.51 652.753 1414.31 652.066 1416.1 651.74Z"
                  fill="#CE237F"/>
            <animateMotion xmlns="http://www.w3.org/2000/svg" path="M 0 0 L 85 106 Z" dur="50s" begin="-10s" repeatCount="indefinite"/>
        </g>
        <g clip-path="url(#clip2_1032_379)">
            <path d="M1356.22 243.905C1356.85 243.565 1357.51 243.238 1358.22 243.121C1359.65 242.88 1361.17 243.027 1362.46 243.715C1363.6 244.29 1364.42 245.297 1365.32 246.169C1366.33 247.289 1367.03 248.752 1366.98 250.281C1367.09 252.013 1366.4 253.762 1365.17 254.987L1360.69 259.468C1359.9 260.238 1359.17 261.106 1358.2 261.653C1357.23 262.256 1356.08 262.479 1354.96 262.54C1354.46 262.465 1353.96 262.479 1353.48 262.33C1352.49 262.101 1351.59 261.609 1350.81 260.964C1350.33 260.491 1349.83 260.029 1349.38 259.523C1350.01 258.851 1350.68 258.223 1351.32 257.56C1351.43 257.458 1351.52 257.313 1351.68 257.29C1351.91 257.467 1352.05 257.728 1352.27 257.915C1353.15 258.722 1354.39 259.159 1355.58 258.976C1356.16 258.858 1356.73 258.658 1357.22 258.328C1357.53 258.12 1357.78 257.832 1358.05 257.569C1359.45 256.17 1360.85 254.768 1362.25 253.371C1363 252.68 1363.47 251.68 1363.49 250.654C1363.54 249.515 1363.07 248.355 1362.23 247.588C1361.45 246.821 1360.33 246.454 1359.25 246.516C1358.34 246.608 1357.43 246.958 1356.77 247.609C1355.92 248.408 1355.15 249.284 1354.29 250.067C1353.6 250.649 1352.47 250.438 1351.99 249.698C1351.58 249.118 1351.63 248.241 1352.15 247.745C1353.13 246.766 1354.11 245.788 1355.09 244.808C1355.43 244.466 1355.79 244.138 1356.22 243.905V243.905Z"
                  fill="#EBE4E8"/>
            <path d="M1350.27 251.493C1352.06 251.247 1353.91 251.881 1355.28 253.042C1355.75 253.523 1356.25 253.974 1356.7 254.481C1356.05 255.188 1355.33 255.833 1354.68 256.533C1354.58 256.604 1354.51 256.753 1354.37 256.738C1354.13 256.482 1353.94 256.185 1353.67 255.954C1352.93 255.294 1351.93 254.93 1350.94 254.983C1349.87 254.952 1348.88 255.52 1348.13 256.234C1346.74 257.618 1345.36 259.006 1343.97 260.387C1343.18 261.159 1342.53 262.203 1342.57 263.346C1342.4 265.468 1344.33 267.534 1346.47 267.441C1347.48 267.461 1348.51 267.113 1349.23 266.387C1349.89 265.714 1350.57 265.05 1351.23 264.376C1351.5 264.101 1351.8 263.855 1352.16 263.706C1352.77 263.434 1353.56 263.622 1353.97 264.148C1354.27 264.556 1354.43 265.109 1354.26 265.603C1354.16 266.018 1353.85 266.322 1353.55 266.607C1352.59 267.542 1351.67 268.524 1350.69 269.439C1349.81 270.263 1348.64 270.628 1347.52 271H1345.51C1344.88 270.715 1344.18 270.595 1343.58 270.251C1342.48 269.684 1341.65 268.764 1340.8 267.892C1340.19 267.238 1339.7 266.462 1339.41 265.616C1339.25 265.186 1339.15 264.738 1339 264.304V262.585C1339.28 261.793 1339.47 260.958 1339.91 260.229C1340.26 259.609 1340.78 259.121 1341.28 258.627C1343.13 256.775 1344.98 254.926 1346.83 253.074C1347.75 252.169 1349.02 251.711 1350.27 251.493Z"
                  fill="#EBE4E8"/>
            <animateMotion xmlns="http://www.w3.org/2000/svg" path="M 0 0 L 85 106 Z" dur="20s" begin="-8s" repeatCount="indefinite"/>
        </g>
        <g clip-path="url(#clip3_1032_379)">
            <path d="M81.1446 88.164C81.957 87.7272 82.797 87.306 83.7162 87.156C85.551 86.8464 87.5094 87.0348 89.1666 87.9192C90.6354 88.6584 91.6842 89.9532 92.8446 91.0752C94.1346 92.5152 95.037 94.3956 94.9782 96.3612C95.1186 98.5884 94.2258 100.837 92.655 102.412L86.8938 108.173C85.875 109.163 84.9402 110.279 83.6826 110.982C82.4418 111.758 80.9622 112.045 79.521 112.123C78.885 112.027 78.2334 112.045 77.6142 111.853C76.3506 111.558 75.183 110.926 74.1918 110.096C73.5666 109.489 72.9234 108.894 72.3438 108.244C73.1514 107.38 74.0202 106.573 74.8398 105.72C74.9814 105.589 75.1014 105.403 75.3078 105.373C75.5994 105.6 75.7842 105.936 76.0662 106.177C77.1942 107.214 78.795 107.776 80.3238 107.54C81.063 107.389 81.7914 107.132 82.4214 106.708C82.827 106.44 83.1486 106.07 83.493 105.732C85.2942 103.933 87.0906 102.131 88.8942 100.334C89.865 99.4464 90.4686 98.16 90.4938 96.8412C90.5574 95.376 89.9526 93.8856 88.8642 92.8992C87.8658 91.9128 86.4234 91.4412 85.0362 91.5204C83.8638 91.6392 82.6962 92.0892 81.849 92.9256C80.7594 93.9528 79.7658 95.0796 78.6594 96.0864C77.7774 96.8352 76.3254 96.5628 75.7026 95.6124C75.1806 94.866 75.237 93.7392 75.9102 93.1008C77.169 91.842 78.429 90.5844 79.6866 89.3244C80.127 88.8852 80.595 88.4628 81.1446 88.164Z"
                  fill="#FDD663"/>
            <path d="M73.4912 97.9199C75.7952 97.6031 78.1736 98.4179 79.9292 99.9107C80.534 100.53 81.182 101.109 81.7508 101.761C80.918 102.671 79.9988 103.5 79.154 104.4C79.0316 104.491 78.9392 104.683 78.7652 104.663C78.4556 104.334 78.2048 103.952 77.8628 103.655C76.9148 102.806 75.6284 102.338 74.3552 102.407C72.9812 102.367 71.7092 103.097 70.7372 104.015C68.9552 105.794 67.1792 107.579 65.3936 109.355C64.3748 110.347 63.536 111.69 63.5852 113.159C63.3728 115.887 65.8496 118.544 68.606 118.424C69.8984 118.449 71.2328 118.002 72.1496 117.069C73.0052 116.204 73.8716 115.35 74.7248 114.483C75.068 114.129 75.4616 113.814 75.92 113.622C76.7036 113.273 77.7164 113.514 78.2468 114.191C78.6332 114.715 78.842 115.425 78.6224 116.061C78.4964 116.594 78.092 116.985 77.7116 117.351C76.472 118.554 75.29 119.816 74.0264 120.993C72.896 122.052 71.3888 122.522 69.9524 123H67.3736C66.56 122.634 65.6636 122.479 64.8824 122.037C63.4772 121.308 62.402 120.125 61.3148 119.004C60.5324 118.163 59.906 117.165 59.5268 116.078C59.3228 115.525 59.1872 114.949 59 114.391V112.181C59.3624 111.162 59.6072 110.089 60.1676 109.152C60.6152 108.355 61.2896 107.727 61.9316 107.091C64.31 104.711 66.6908 102.333 69.068 99.9527C70.2548 98.7887 71.8808 98.1995 73.4912 97.9199Z"
                  fill="#FDD663"/>
            <animateMotion xmlns="http://www.w3.org/2000/svg" path="M 0 0 L 85 106 Z" dur="30s" repeatCount="indefinite"/>
        </g>
    </g>
    <defs>
        <clipPath id="clip0_1032_379">
            <rect width="1920" height="970" fill="white"/>
        </clipPath>
        <clipPath id="clip1_1032_379">
            <rect width="40" height="42" fill="white" transform="translate(1400 639)"/>
        </clipPath>
        <clipPath id="clip2_1032_379">
            <rect width="28" height="28" fill="white" transform="translate(1339 243)"/>
        </clipPath>
        <clipPath id="clip3_1032_379">
            <rect width="36" height="36" fill="white" transform="translate(59 87)"/>
        </clipPath>
    </defs>
</svg>
